# xmcd
#
# Track frame offsets: 
#        150
#        23622
#        44574
#        66330
#        87873
#        105572
#        113020
#        128454
#        144603
#        155459
#        173810
#        196167
#        209459
#        234043
#
# Disc length: 3334 seconds
#
# Revision: 0
# Processed by: cddbd v1.5.2PL0 Copyright (c) Steve Scherf et al.
# Submitted via: ExactAudioCopy v0.90b4
#
DISCID=b10d040e
DTITLE=Big daddy wilson and doc fozz - Walk a mile in my shoes
DYEAR=1900
DGENRE=Blues
TTITLE0=Walk a mile in my shoes
TTITLE1=Freight train
TTITLE2=On the run
TTITLE3=I heard the angels singin'
TTITLE4=Dont ever let nobody drag your spirit down
TTITLE5=This little light of mine
TTITLE6=Please
TTITLE7=Wanna be your man
TTITLE8=Two little nice ones
TTITLE9=Hurricane
TTITLE10=Crazy world
TTITLE11=Right or wrong
TTITLE12=Brother blood
TTITLE13=Walking
EXTD=
EXTT0=
EXTT1=
EXTT2=
EXTT3=
EXTT4=
EXTT5=
EXTT6=
EXTT7=
EXTT8=
EXTT9=
EXTT10=
EXTT11=
EXTT12=
EXTT13=
PLAYORDER=
